<?xml version="1.0" encoding="iso-8859-1"?>
<!-- Uploaded to: SVG Repo, www.svgrepo.com, Generator: SVG Repo Mixer Tools -->
<svg height="800px" width="800px" version="1.1" id="Layer_1" xmlns="http://www.w3.org/2000/svg" xmlns:xlink="http://www.w3.org/1999/xlink" 
	 viewBox="0 0 512 512" xml:space="preserve">
<polygon style="fill:#FF405F;" points="512,430.787 256,470.567 0,430.787 0,81.213 256,120.992 512,81.213 "/>
<polygon style="fill:#FB788A;" points="0,81.213 0,430.787 256,470.567 256,120.992 "/>
<polygon style="fill:#FBBA00;" points="256,73.265 51.144,41.433 51.144,385.213 256,417.045 460.856,385.213 460.856,41.433 "/>
<polygon style="fill:#FBDB80;" points="51.144,41.433 51.144,385.213 256,417.046 256,73.265 "/>
<g>
	<polygon style="fill:#FBBA00;" points="97.361,207.408 209.782,224.956 209.782,193.23 97.361,175.682 	"/>
	<polygon style="fill:#FBBA00;" points="97.361,117.843 97.361,149.569 209.782,167.117 209.782,135.39 	"/>
	<polygon style="fill:#FBBA00;" points="97.361,265.247 209.782,282.796 209.782,251.07 97.361,233.521 	"/>
	<polygon style="fill:#FBBA00;" points="97.361,323.088 209.782,340.636 209.782,308.909 97.361,291.361 	"/>
</g>
<g>
	<polygon style="fill:#F28E00;" points="302.218,224.956 414.638,207.408 414.638,175.682 302.218,193.23 	"/>
	<polygon style="fill:#F28E00;" points="302.218,282.796 414.638,265.247 414.638,233.521 302.218,251.07 	"/>
	<polygon style="fill:#F28E00;" points="302.218,135.39 302.218,167.117 414.638,149.569 414.638,117.843 	"/>
	<polygon style="fill:#F28E00;" points="302.218,340.636 414.638,323.088 414.638,291.361 302.218,308.909 	"/>
</g>
</svg>